<?xml version="1.0" encoding="iso-8859-1"?>
<!-- Generator: Adobe Illustrator 19.0.0, SVG Export Plug-In . SVG Version: 6.00 Build 0)  -->
<svg version="1.1" id="Layer_1" xmlns="http://www.w3.org/2000/svg" xmlns:xlink="http://www.w3.org/1999/xlink" x="0px" y="0px"
	 viewBox="0 0 512 512" style="enable-background:new 0 0 512 512;" xml:space="preserve">
<g>
	<g>
		<path d="M256,73.897c-88.77,0-160.99,72.219-160.99,160.99S167.23,395.876,256,395.876s160.99-72.219,160.99-160.99
			S344.77,73.897,256,73.897z M256,380.041c-80.039,0-145.155-65.116-145.155-145.155S175.961,89.732,256,89.732
			s145.155,65.116,145.155,145.155S336.039,380.041,256,380.041z"/>
	</g>
</g>
<g>
	<g>
		<path d="M413.983,99.007c-30.714-35.574-72.545-59.76-118.396-68.599V0h-79.175v30.409
			c-45.851,8.839-87.682,33.026-118.396,68.599c-32.573,37.728-50.512,85.983-50.512,135.88c0,47.97,16.706,94.796,47.04,131.853
			c28.533,34.858,67.865,59.714,111.311,70.48V512h100.289v-74.781c43.446-10.765,82.778-35.621,111.311-70.48
			c30.334-37.057,47.04-83.884,47.04-131.853C464.495,184.99,446.556,136.735,413.983,99.007z M405.202,356.71
			c-27.632,33.757-66.214,57.365-108.637,66.473l-6.256,1.344v71.638h-68.619v-71.638l-6.256-1.343
			c-42.423-9.108-81.005-32.716-108.637-66.473C78.774,322.474,63.34,279.21,63.34,234.887c0-46.098,16.572-90.679,46.663-125.531
			c29.757-34.467,70.802-57.366,115.57-64.482l6.675-1.061V15.835h47.505v27.977l6.675,1.061
			c44.769,7.115,85.812,30.016,115.571,64.482c30.09,34.852,46.662,79.433,46.662,125.531
			C448.66,279.21,433.226,322.474,405.202,356.71z"/>
	</g>
</g>
<g>
	<g>
		<rect x="234.887" y="432.825" width="42.227" height="15.835"/>
	</g>
</g>
<g>
	<g>
		<rect x="234.887" y="464.495" width="42.227" height="15.835"/>
	</g>
</g>
<g>
	<g>
		<path d="M256,110.845c-68.397,0-124.041,55.644-124.041,124.041v7.918h44.866v-15.835H148.08
			c1.639-22.571,10.238-43.242,23.648-59.879l25.889,25.889l11.196-11.196L182.54,155.51c17.495-16.201,40.332-26.711,65.541-28.542
			v34.022h15.835v-34.022c25.208,1.832,48.047,12.341,65.541,28.542l-26.274,26.274l11.196,11.196l25.889-25.889
			c13.41,16.636,22.009,37.307,23.648,59.879h-28.743v15.835h44.866v-7.918C380.041,166.49,324.397,110.845,256,110.845z"/>
	</g>
</g>
<g>
	<g>
		<path d="M263.918,270.128v-93.303h-15.835v93.303c-15.112,3.585-26.392,17.184-26.392,33.377
			c0,18.918,15.392,34.309,34.309,34.309s34.309-15.392,34.309-34.309C290.309,287.312,279.029,273.713,263.918,270.128z
			 M256,321.979c-10.186,0-18.474-8.288-18.474-18.474c0-10.186,8.288-18.474,18.474-18.474s18.474,8.288,18.474,18.474
			C274.474,313.691,266.186,321.979,256,321.979z"/>
	</g>
</g>
<g>
	<g>
		<rect x="155.711" y="263.918" width="21.113" height="15.835"/>
	</g>
</g>
<g>
	<g>
		<rect x="335.175" y="263.918" width="21.113" height="15.835"/>
	</g>
</g>
<g>
</g>
<g>
</g>
<g>
</g>
<g>
</g>
<g>
</g>
<g>
</g>
<g>
</g>
<g>
</g>
<g>
</g>
<g>
</g>
<g>
</g>
<g>
</g>
<g>
</g>
<g>
</g>
<g>
</g>
</svg>
